<svg width="24" height="24" xmlns="http://www.w3.org/2000/svg">

 <g>
  <title>background</title>
  <rect fill="none" id="canvas_background" height="602" width="802" y="-1" x="-1"/>
 </g>
 <g>
  <title>Layer 1</title>
  <path id="svg_1" fill="none" d="m0,0l24,0l0,24l-24,0l0,-24z"/>
  <path fill="#bdbdbd" id="svg_2" d="m20,2l-16,0c-1.1,0 -1.99,0.9 -1.99,2l-0.01,18l4,-4l14,0c1.1,0 2,-0.9 2,-2l0,-12c0,-1.1 -0.9,-2 -2,-2zm-13,7l10,0c0.55,0 1,0.45 1,1s-0.45,1 -1,1l-10,0c-0.55,0 -1,-0.45 -1,-1s0.45,-1 1,-1zm6,5l-6,0c-0.55,0 -1,-0.45 -1,-1s0.45,-1 1,-1l6,0c0.55,0 1,0.45 1,1s-0.45,1 -1,1zm4,-6l-10,0c-0.55,0 -1,-0.45 -1,-1s0.45,-1 1,-1l10,0c0.55,0 1,0.45 1,1s-0.45,1 -1,1z"/>
 </g>
</svg>