<svg width="24" height="24" xmlns="http://www.w3.org/2000/svg">

 <g>
  <title>background</title>
  <rect fill="none" id="canvas_background" height="602" width="802" y="-1" x="-1"/>
 </g>
 <g>
  <title>Layer 1</title>
  <path id="svg_1" fill="none" d="m0,0l24,0l0,24l-24,0l0,-24z"/>
  <path fill="#bdbdbd" id="svg_2" d="m10,19l0,-5l4,0l0,5c0,0.55 0.45,1 1,1l3,0c0.55,0 1,-0.45 1,-1l0,-7l1.7,0c0.46,0 0.68,-0.57 0.33,-0.87l-8.36,-7.53c-0.38,-0.34 -0.96,-0.34 -1.34,0l-8.36,7.53c-0.34,0.3 -0.13,0.87 0.33,0.87l1.7,0l0,7c0,0.55 0.45,1 1,1l3,0c0.55,0 1,-0.45 1,-1z"/>
 </g>
</svg>