<svg width="24" height="24" xmlns="http://www.w3.org/2000/svg">

 <g>
  <title>background</title>
  <rect fill="none" id="canvas_background" height="6.40367" width="6.40367" y="-1" x="-1"/>
 </g>
 <g>
  <title>Layer 1</title>
  <path id="svg_1" fill="none" d="m0,0l24,0l0,24l-24,0l0,-24z"/>
  <path fill="#bdbdbd" id="svg_2" d="m11.875,22c1.1,0 2,-0.9 2,-2l-4,0c0,1.1 0.89,2 2,2zm6,-6l0,-5c0,-3.07 -1.64,-5.64 -4.5,-6.32l0,-0.68c0,-0.83 -0.67,-1.5 -1.5,-1.5s-1.5,0.67 -1.5,1.5l0,0.68c-2.87,0.68 -4.5,3.24 -4.5,6.32l0,5l-1.29,1.29c-0.63,0.63 -0.19,1.71 0.7,1.71l13.17,0c0.89,0 1.34,-1.08 0.71,-1.71l-1.29,-1.29z"/>
 </g>
</svg>