<svg width="24" height="24" xmlns="http://www.w3.org/2000/svg">

 <g>
  <title>background</title>
  <rect fill="none" id="canvas_background" height="602" width="802" y="-1" x="-1"/>
 </g>
 <g>
  <title>Layer 1</title>
  <path id="svg_1" fill="none" d="m0,0l24,0l0,24l-24,0l0,-24z"/>
  <path id="svg_2" fill="#000000" d="m16,11c1.66,0 2.99,-1.34 2.99,-3s-1.33,-3 -2.99,-3s-3,1.34 -3,3s1.34,3 3,3zm-8,0c1.66,0 2.99,-1.34 2.99,-3s-1.33,-3 -2.99,-3s-3,1.34 -3,3s1.34,3 3,3zm0,2c-2.33,0 -7,1.17 -7,3.5l0,1.5c0,0.55 0.45,1 1,1l12,0c0.55,0 1,-0.45 1,-1l0,-1.5c0,-2.33 -4.67,-3.5 -7,-3.5zm8,0c-0.29,0 -0.62,0.02 -0.97,0.05c0.02,0.01 0.03,0.03 0.04,0.04c1.14,0.83 1.93,1.94 1.93,3.41l0,1.5c0,0.35 -0.07,0.69 -0.18,1l5.18,0c0.55,0 1,-0.45 1,-1l0,-1.5c0,-2.33 -4.67,-3.5 -7,-3.5z"/>
 </g>
</svg>
