<svg width="24" height="24" xmlns="http://www.w3.org/2000/svg">

 <g>
  <title>background</title>
  <rect fill="none" id="canvas_background" height="602" width="802" y="-1" x="-1"/>
 </g>
 <g>
  <title>Layer 1</title>
  <path id="svg_1" fill="none" d="m0,0l24,0l0,24l-24,0l0,-24z"/>
  <path fill="#18a0fb" id="svg_2" d="m21.99,4c0,-1.1 -0.89,-2 -1.99,-2l-16,0c-1.1,0 -2,0.9 -2,2l0,12c0,1.1 0.9,2 2,2l14,0l4,4l-0.01,-18zm-4.99,10l-10,0c-0.55,0 -1,-0.45 -1,-1s0.45,-1 1,-1l10,0c0.55,0 1,0.45 1,1s-0.45,1 -1,1zm0,-3l-10,0c-0.55,0 -1,-0.45 -1,-1s0.45,-1 1,-1l10,0c0.55,0 1,0.45 1,1s-0.45,1 -1,1zm0,-3l-10,0c-0.55,0 -1,-0.45 -1,-1s0.45,-1 1,-1l10,0c0.55,0 1,0.45 1,1s-0.45,1 -1,1z"/>
 </g>
</svg>