<svg width="24" height="24" xmlns="http://www.w3.org/2000/svg">

 <g>
  <title>background</title>
  <rect fill="none" id="canvas_background" height="602" width="802" y="-1" x="-1"/>
 </g>
 <g>
  <title>Layer 1</title>
  <path id="svg_1" fill="none" d="m0,0l24,0l0,24l-24,0l0,-24z"/>
  <path fill="#f10d0d" id="svg_2" d="m13.35,20.13c-0.76,0.69 -1.93,0.69 -2.69,-0.01l-0.11,-0.1c-5.25,-4.75 -8.68,-7.86 -8.55,-11.74c0.06,-1.7 0.93,-3.33 2.34,-4.29c2.64,-1.8 5.9,-0.96 7.66,1.1c1.76,-2.06 5.02,-2.91 7.66,-1.1c1.41,0.96 2.28,2.59 2.34,4.29c0.14,3.88 -3.3,6.99 -8.55,11.76l-0.1,0.09z"/>
 </g>
</svg>