<svg width="23.999999999999996" height="23.999999999999996" xmlns="http://www.w3.org/2000/svg">

 <g>
  <title>background</title>
  <rect fill="none" id="canvas_background" height="602" width="802" y="-1" x="-1"/>
 </g>
 <g>
  <title>Layer 1</title>
  <path id="svg_1" fill="none" d="m0,0l24,0l0,24l-24,0l0,-24z"/>
  <path fill="#bdbdbd" id="svg_2" d="m3,8c0,0.55 0.45,1 1,1s1,-0.45 1,-1l0,-2l2,0c0.55,0 1,-0.45 1,-1s-0.45,-1 -1,-1l-2,0l0,-2c0,-0.55 -0.45,-1 -1,-1s-1,0.45 -1,1l0,2l-2,0c-0.55,0 -1,0.45 -1,1s0.45,1 1,1l2,0l0,2z"/>
  <circle fill="#bdbdbd" id="svg_3" r="3" cy="14" cx="13"/>
  <path fill="#bdbdbd" id="svg_4" d="m21,6l-3.17,0l-1.24,-1.35c-0.37,-0.41 -0.91,-0.65 -1.47,-0.65l-6.4,0c0.17,0.3 0.28,0.63 0.28,1c0,1.1 -0.9,2 -2,2l-1,0l0,1c0,1.1 -0.9,2 -2,2c-0.37,0 -0.7,-0.11 -1,-0.28l0,10.28c0,1.1 0.9,2 2,2l16,0c1.1,0 2,-0.9 2,-2l0,-12c0,-1.1 -0.9,-2 -2,-2zm-8,13c-2.76,0 -5,-2.24 -5,-5s2.24,-5 5,-5s5,2.24 5,5s-2.24,5 -5,5z"/>
 </g>
</svg>