<svg width="24" height="24" xmlns="http://www.w3.org/2000/svg">

 <g>
  <title>background</title>
  <rect fill="none" id="canvas_background" height="602" width="802" y="-1" x="-1"/>
 </g>
 <g>
  <title>Layer 1</title>
  <path id="svg_1" fill="none" d="m0,0l24,0l0,24l-24,0l0,-24z"/>
  <path fill="#bdbdbd" id="svg_2" d="m11.99,2c-5.52,0 -9.99,4.48 -9.99,10s4.47,10 9.99,10c5.53,0 10.01,-4.48 10.01,-10s-4.48,-10 -10.01,-10zm0.01,18c-4.42,0 -8,-3.58 -8,-8s3.58,-8 8,-8s8,3.58 8,8s-3.58,8 -8,8zm-0.22,-13l-0.06,0c-0.4,0 -0.72,0.32 -0.72,0.72l0,4.72c0,0.35 0.18,0.68 0.49,0.86l4.15,2.49c0.34,0.2 0.78,0.1 0.98,-0.24c0.21,-0.34 0.1,-0.79 -0.25,-0.99l-3.87,-2.3l0,-4.54c0,-0.4 -0.32,-0.72 -0.72,-0.72z"/>
 </g>
</svg>