<svg width="24" height="24" xmlns="http://www.w3.org/2000/svg">
 <g>
  <title>background</title>
  <rect x="-1" y="-1" width="4.99989" height="4.99989" id="canvas_background" fill="none"/>
 </g>

 <g>
  <title>Layer 1</title>
  <path d="m0,0l24,0l0,24l-24,0l0,-24z" fill="none" id="svg_1"/>
  <path d="m18.875,19l-14,0l0,-14l7,0l0,-2l-7,0c-1.11,0 -2,0.9 -2,2l0,14c0,1.1 0.89,2 2,2l14,0c1.1,0 2,-0.9 2,-2l0,-7l-2,0l0,7zm-5,-16l0,2l3.59,0l-9.83,9.83l1.41,1.41l9.83,-9.83l0,3.59l2,0l0,-7l-7,0z" id="svg_2" stroke-width="0" fill="#bdbdbd"/>
 </g>
</svg>